HIERARCHY
ROOT hip
{
	OFFSET 0.000000 0.000000 0.000000 
	CHANNELS 6 Xposition Yposition Zposition Xrotation Zrotation Yrotation
	JOINT abdomen
	{
		OFFSET 0.000000 3.402643 0.000000 
		CHANNELS 3 Xrotation Zrotation Yrotation
		JOINT chest
		{
			OFFSET 0.000000 8.438565 -0.680529 
			CHANNELS 3 Xrotation Zrotation Yrotation
			JOINT neck
			{
				OFFSET 0.000000 10.207942 -0.272212 
				CHANNELS 3 Xrotation Zrotation Yrotation
				JOINT head
				{
					OFFSET 0.000000 3.130431 0.000000 
					CHANNELS 3 Xrotation Zrotation Yrotation
					End Site
					{
						OFFSET 0.000000 3.130435 0.000000 
					}
				}
			}
			JOINT lCollar
			{
				OFFSET 3.470700 6.669187 -0.816635 
				CHANNELS 3 Yrotation Zrotation Xrotation
				JOINT lShldr
				{
					OFFSET 3.198488 0.000000 0.000000 
					CHANNELS 3 Zrotation Yrotation Xrotation
					JOINT lForeArm
					{
						OFFSET 10.139888 0.000000 0.000000 
						CHANNELS 3 Yrotation Zrotation Xrotation
						JOINT lHand
						{
							OFFSET 8.370511 0.000000 0.000000 
							CHANNELS 3 Zrotation Yrotation Xrotation
							End Site
							{
								OFFSET 4.083176 0.000000 0.000000 
							}
						}
					}
				}
			}
			JOINT rCollar
			{
				OFFSET -3.470700 6.669187 -0.816635 
				CHANNELS 3 Yrotation Zrotation Xrotation
				JOINT rShldr
				{
					OFFSET -3.198488 0.000000 0.000000 
					CHANNELS 3 Zrotation Yrotation Xrotation
					JOINT rForeArm
					{
						OFFSET -10.139888 0.000000 0.000000 
						CHANNELS 3 Yrotation Zrotation Xrotation
						JOINT rHand
						{
							OFFSET -8.370511 0.000000 0.000000 
							CHANNELS 3 Zrotation Yrotation Xrotation
							End Site
							{
								OFFSET -4.083176 0.000000 0.000000 
							}
						}
					}
				}
			}
		}
	}
	JOINT lThigh
	{
		OFFSET 5.308129 -1.633274 1.361059 
		CHANNELS 3 Xrotation Zrotation Yrotation
		JOINT lShin
		{
			OFFSET -2.041588 -20.007561 0.000000 
			CHANNELS 3 Xrotation Zrotation Yrotation
			JOINT lFoot
			{
				OFFSET 0.000000 -19.190928 -1.224953 
				CHANNELS 3 Xrotation Yrotation Zrotation
				End Site
				{
					OFFSET 0.000000 -2.449906 4.627600 
				}
			}
		}
	}
	JOINT rThigh
	{
		OFFSET -5.308129 -1.633274 1.361059 
		CHANNELS 3 Xrotation Zrotation Yrotation
		JOINT rShin
		{
			OFFSET 2.041588 -20.007561 0.000000 
			CHANNELS 3 Xrotation Zrotation Yrotation
			JOINT rFoot
			{
				OFFSET 0.000000 -19.190928 -1.224953 
				CHANNELS 3 Xrotation Yrotation Zrotation
				End Site
				{
					OFFSET 0.000000 -2.449906 4.627600 
				}
			}
		}
	}
}
MOTION
Frames: 8
Frame Time: 0.033333
-3.694087 41.270706 -55.388821 9.394358 26.913069 125.161758 32.906929 6.457811 -2.571372 -20.839844 0.000000 0.000000 19.491749 16.392036 21.871677 -2.520860 -1.255023 0.218345 -4.754609 -0.109182 -0.002653 -5.511338 -38.442291 -38.717861 -60.750954 3.491990 -29.508108 -18.488346 4.622725 -41.353996 4.754609 0.109182 -0.002672 63.168465 31.437046 -2.860493 83.920174 3.462438 12.982890 -6.211665 -18.403894 19.181425 -48.016594 11.356982 -3.713285 118.326836 8.529855 -1.400344 1.478028 -2.158044 -20.869192 -42.152790 -10.623567 0.726441 86.609619 -3.603599 1.855158 5.296472 -3.169457 20.030390 
-3.610316 41.245338 -55.421307 9.008817 26.346956 125.052345 32.938404 6.738107 -2.637683 -20.839844 0.000000 0.000000 18.898788 16.344236 22.252399 -2.520860 -1.255023 0.218345 -4.754609 -0.109182 -0.002653 -4.515537 -38.555969 -39.644970 -61.099739 3.962209 -30.110380 -18.935282 4.398360 -41.879395 4.754609 0.109182 -0.002672 63.004917 30.433985 -2.752639 89.188553 4.198153 12.740276 -6.886183 -17.390692 19.382551 -48.825958 11.425338 -3.716441 118.473473 8.490821 -1.405629 1.760458 -2.240532 -20.646873 -42.523918 -10.457686 0.835631 86.244469 -3.652174 1.893164 6.520495 -2.847544 21.024109 
-3.465625 41.184402 -55.485287 8.450610 25.731113 124.904274 32.910301 7.111982 -2.865161 -20.839844 0.000000 0.000000 18.221609 16.379299 22.572243 -2.520860 -1.255023 0.218345 -4.754609 -0.109182 -0.002653 -3.410431 -38.601135 -40.547752 -61.326118 4.338092 -30.606091 -19.421543 3.941569 -42.281006 4.754609 0.109182 -0.002672 62.751572 29.490328 -2.507243 94.380371 5.150851 12.382428 -7.161201 -16.171131 19.533154 -49.766678 11.648651 -3.759135 118.777496 8.509176 -1.429741 1.890824 -2.386291 -20.315149 -42.958122 -10.116976 0.886660 85.858482 -3.545020 2.129781 7.806452 -2.302033 21.240664 
-3.310778 41.169174 -55.561428 7.982276 25.388725 124.712738 33.120598 7.258783 -3.428094 -20.839844 0.000000 0.000000 17.993143 16.565147 23.779909 -2.520860 -1.255023 0.218345 -4.754609 -0.109182 -0.002653 -2.196941 -38.431679 -41.401260 -61.875954 4.628762 -30.753969 -19.278933 3.847384 -42.339989 4.754609 0.109182 -0.002672 63.332241 29.017574 -1.718007 99.024399 6.039996 11.956347 -7.820405 -14.746840 19.779879 -50.199856 11.981359 -3.772874 118.964325 8.539957 -1.439871 1.908022 -2.477462 -20.046219 -43.076855 -9.500265 0.947312 85.457031 -3.427645 2.527333 8.768115 -1.599389 20.895712 
-3.139178 41.166130 -55.659924 7.482224 25.007099 124.206581 33.079208 7.407204 -3.439027 -20.839844 0.000000 0.000000 17.892813 16.514296 24.773985 -2.520860 -1.255023 0.218345 -4.754609 -0.109182 -0.002653 -1.391510 -38.327320 -42.035339 -62.831676 4.949794 -30.961880 -19.218035 4.174515 -42.612591 4.754609 0.109182 -0.002672 63.582687 28.061779 -1.115687 103.520676 7.039656 11.710657 -8.007120 -13.544142 20.490705 -50.482315 12.459512 -3.699372 119.116493 8.489264 -1.291869 1.914366 -2.236994 -20.291658 -43.266289 -8.973787 0.967516 84.905548 -3.202847 3.130800 10.138697 -0.418016 21.111380 
-2.924441 41.125511 -55.781780 7.010171 24.485874 123.904526 32.944923 7.366009 -3.538866 -20.839844 0.000000 0.000000 17.510775 16.751738 25.540947 -2.520860 -1.255023 0.218345 -4.754609 -0.109182 -0.002653 -0.897517 -38.030754 -42.437496 -64.869934 5.295173 -30.872871 -19.402794 4.513811 -42.702011 4.754609 0.109182 -0.002672 63.955147 26.883253 -0.645011 107.732910 7.765340 11.580240 -7.361720 -12.379969 21.355988 -50.870472 12.586077 -3.729957 119.430260 8.499048 -1.053553 1.685039 -1.913467 -20.352781 -43.314140 -8.924643 0.710962 84.156616 -2.753663 4.027900 12.054990 1.313834 22.015745 
-2.709681 41.064087 -55.919872 6.633528 24.065365 123.811768 33.010132 7.287459 -3.740495 -20.839844 0.000000 0.000000 16.747519 17.001854 25.810467 -2.520860 -1.255023 0.218345 -4.754609 -0.109182 -0.002653 0.125066 -37.629959 -42.885639 -67.175934 5.389297 -29.971361 -18.752672 5.128287 -41.830891 4.754609 0.109182 -0.002672 64.322243 25.776188 -0.301904 110.981186 8.276845 11.825859 -6.722980 -10.298649 22.634251 -51.155148 12.449720 -3.877974 119.769196 8.646486 -0.998044 1.140432 -1.925829 -20.722803 -42.963467 -8.856369 0.416507 83.056244 -2.216758 5.007462 14.436638 3.251840 22.593334 
-2.541140 40.986412 -56.036633 6.312019 23.621834 123.956390 32.794754 7.430050 -4.105348 -20.839844 0.000000 0.000000 16.267624 16.915558 25.499367 -2.520860 -1.255023 0.218345 -4.754609 -0.109182 -0.002653 2.201452 -36.976517 -43.297043 -69.682236 4.728293 -27.259886 -15.199146 6.751988 -38.690689 4.754609 0.109182 -0.002672 64.503242 24.116018 -0.193273 113.574532 8.762997 12.482140 -5.671367 -7.579939 24.452946 -51.672863 11.873555 -4.157950 120.226601 8.870692 -0.984273 0.823940 -2.190939 -21.237659 -42.524338 -8.924906 0.108434 81.540062 -1.601368 5.941073 16.749701 5.130773 22.626598 
